<svg width="40" height="40" viewBox="0 0 40 40" fill="none" xmlns="http://www.w3.org/2000/svg">
<mask id="mask0_10_44" style="mask-type:alpha" maskUnits="userSpaceOnUse" x="0" y="0" width="40" height="40">
<rect width="40" height="40" fill="#D9D9D9"/>
</mask>
<g mask="url(#mask0_10_44)">
<path d="M18.3645 21.8656V26.9939C18.3645 27.4855 18.5346 27.9002 18.8747 28.2379C19.2149 28.5757 19.6271 28.7445 20.1111 28.7445C20.6045 28.7445 21.0156 28.5789 21.3445 28.2477C21.6734 27.9165 21.8378 27.4981 21.8378 26.9923V21.8656H27.0217C27.4953 21.8656 27.9008 21.6978 28.2383 21.3623C28.5758 21.0267 28.7445 20.6139 28.7445 20.1239C28.7445 19.6338 28.5791 19.2227 28.2481 18.8905C27.9171 18.5583 27.5078 18.3922 27.0201 18.3922H21.8378V12.9782C21.8378 12.5047 21.6718 12.0992 21.3397 11.7617C21.0075 11.4242 20.5964 11.2554 20.1064 11.2554C19.6163 11.2554 19.2035 11.4209 18.8679 11.7518C18.5323 12.0828 18.3645 12.4922 18.3645 12.9799V18.3922H13.006C12.5144 18.3922 12.0998 18.5606 11.762 18.8974C11.4243 19.2342 11.2555 19.6446 11.2555 20.1286C11.2555 20.622 11.4211 21.0349 11.7522 21.3671C12.0834 21.6994 12.5019 21.8656 13.0077 21.8656H18.3645ZM19.9956 37.6352C17.5629 37.6352 15.2748 37.1723 13.1315 36.2463C10.9882 35.3204 9.1209 34.0618 7.52954 32.4704C5.9382 30.8791 4.67957 29.0101 3.75362 26.8636C2.8277 24.7171 2.36475 22.4249 2.36475 19.987C2.36475 17.5487 2.82852 15.2574 3.75608 13.1133C4.68366 10.9691 5.94644 9.09807 7.54441 7.50009C9.14239 5.90209 11.0104 4.64559 13.1485 3.73059C15.2866 2.81559 17.5705 2.35809 20.0001 2.35809C22.4398 2.35809 24.7349 2.81537 26.8855 3.72993C29.036 4.64448 30.9081 5.90054 32.5016 7.4981C34.0951 9.09568 35.3502 10.9699 36.2669 13.1207C37.1836 15.2715 37.6419 17.5675 37.6419 20.0088C37.6419 22.4498 37.1844 24.7352 36.2694 26.8649C35.3544 28.9946 34.0979 30.8566 32.4999 32.4509C30.9019 34.0452 29.0283 35.3078 26.8791 36.2388C24.7299 37.1697 22.4354 37.6352 19.9956 37.6352Z" fill="white"/>
</g>
</svg>
