<svg width="40" height="40" viewBox="0 0 40 40" fill="none" xmlns="http://www.w3.org/2000/svg">
<mask id="mask0_10_14" style="mask-type:alpha" maskUnits="userSpaceOnUse" x="0" y="0" width="40" height="40">
<rect width="40" height="40" fill="#D9D9D9"/>
</mask>
<g mask="url(#mask0_10_14)">
<path d="M7.7506 37.5996C6.74671 37.5996 5.87588 37.2284 5.1381 36.486C4.40032 35.7435 4.03143 34.875 4.03143 33.8804V8.81607C4.03143 7.81038 4.40032 6.93799 5.1381 6.1989C5.87588 5.45982 6.74671 5.09028 7.7506 5.09028H9.31256V4.20199C9.31256 3.70871 9.49359 3.28402 9.85564 2.9279C10.2177 2.57179 10.6473 2.39374 11.1444 2.39374C11.6587 2.39374 12.0935 2.57179 12.4486 2.9279C12.8037 3.28402 12.9813 3.70871 12.9813 4.20199V5.09028H27.0187V4.20199C27.0187 3.70871 27.1974 3.28402 27.5549 2.9279C27.9122 2.57179 28.3425 2.39374 28.8456 2.39374C29.3566 2.39374 29.7913 2.57179 30.1498 2.9279C30.5083 3.28402 30.6875 3.70871 30.6875 4.20199V5.09028H32.2494C33.2551 5.09028 34.1275 5.45982 34.8666 6.1989C35.6057 6.93799 35.9752 7.81038 35.9752 8.81607V33.8804C35.9752 34.875 35.6057 35.7435 34.8666 36.4859C34.1275 37.2284 33.2551 37.5996 32.2494 37.5996H7.7506ZM7.7506 33.8804H32.2494V15.9529H7.7506V33.8804ZM20.0003 23.5266C19.4859 23.5266 19.0472 23.3443 18.6844 22.9797C18.3215 22.615 18.1401 22.1765 18.1401 21.6641C18.1401 21.1517 18.3231 20.714 18.6891 20.3511C19.055 19.9882 19.4952 19.8067 20.0096 19.8067C20.524 19.8067 20.961 19.989 21.3206 20.3537C21.6801 20.7183 21.8599 21.1568 21.8599 21.6692C21.8599 22.1817 21.6786 22.6193 21.3159 22.9822C20.9532 23.3451 20.5147 23.5266 20.0003 23.5266ZM13.3308 23.5266C12.8183 23.5266 12.3807 23.3443 12.0178 22.9797C11.6549 22.615 11.4734 22.1765 11.4734 21.6641C11.4734 21.1517 11.6557 20.714 12.0204 20.3511C12.385 19.9882 12.8235 19.8067 13.3359 19.8067C13.8484 19.8067 14.286 19.989 14.6489 20.3537C15.0118 20.7183 15.1933 21.1568 15.1933 21.6692C15.1933 22.1817 15.011 22.6193 14.6463 22.9822C14.2817 23.3451 13.8432 23.5266 13.3308 23.5266ZM26.6571 23.5266C26.152 23.5266 25.7174 23.3443 25.3531 22.9797C24.9889 22.615 24.8068 22.1765 24.8068 21.6641C24.8068 21.1517 24.9904 20.714 25.3578 20.3511C25.7251 19.9882 26.163 19.8067 26.6714 19.8067C27.1798 19.8067 27.6161 19.989 27.9803 20.3537C28.3445 20.7183 28.5266 21.1568 28.5266 21.6692C28.5266 22.1817 28.3436 22.6193 27.9776 22.9822C27.6117 23.3451 27.1715 23.5266 26.6571 23.5266ZM20.0003 30.1932C19.4859 30.1932 19.0472 30.0096 18.6844 29.6422C18.3215 29.2749 18.1401 28.837 18.1401 28.3286C18.1401 27.8202 18.3231 27.3839 18.6891 27.0197C19.055 26.6555 19.4952 26.4734 20.0096 26.4734C20.524 26.4734 20.961 26.6564 21.3206 27.0224C21.6801 27.3883 21.8599 27.8285 21.8599 28.3429C21.8599 28.848 21.6786 29.2826 21.3159 29.6469C20.9532 30.0111 20.5147 30.1932 20.0003 30.1932ZM13.3308 30.1932C12.8183 30.1932 12.3807 30.0096 12.0178 29.6422C11.6549 29.2749 11.4734 28.837 11.4734 28.3286C11.4734 27.8202 11.6557 27.3839 12.0204 27.0197C12.385 26.6555 12.8235 26.4734 13.3359 26.4734C13.8484 26.4734 14.286 26.6564 14.6489 27.0224C15.0118 27.3883 15.1933 27.8285 15.1933 28.3429C15.1933 28.848 15.011 29.2826 14.6463 29.6469C14.2817 30.0111 13.8432 30.1932 13.3308 30.1932ZM26.6571 30.1932C26.152 30.1932 25.7174 30.0096 25.3531 29.6422C24.9889 29.2749 24.8068 28.837 24.8068 28.3286C24.8068 27.8202 24.9904 27.3839 25.3578 27.0197C25.7251 26.6555 26.163 26.4734 26.6714 26.4734C27.1798 26.4734 27.6161 26.6564 27.9803 27.0224C28.3445 27.3883 28.5266 27.8285 28.5266 28.3429C28.5266 28.848 28.3436 29.2826 27.9776 29.6469C27.6117 30.0111 27.1715 30.1932 26.6571 30.1932Z" fill="white"/>
</g>
</svg>
