<svg width="30" height="30" viewBox="0 0 30 30" fill="none" xmlns="http://www.w3.org/2000/svg">
<path d="M5 26.25C4.64583 26.25 4.34896 26.1302 4.10938 25.8906C3.86979 25.651 3.75 25.3542 3.75 25V21.9688C3.75 21.6354 3.8125 21.3177 3.9375 21.0156C4.0625 20.7135 4.23958 20.4479 4.46875 20.2188L20.25 4.46875C20.5 4.23958 20.776 4.0625 21.0781 3.9375C21.3802 3.8125 21.6979 3.75 22.0312 3.75C22.3646 3.75 22.6875 3.8125 23 3.9375C23.3125 4.0625 23.5833 4.25 23.8125 4.5L25.5312 6.25C25.7812 6.47917 25.9635 6.75 26.0781 7.0625C26.1927 7.375 26.25 7.6875 26.25 8C26.25 8.33333 26.1927 8.65104 26.0781 8.95312C25.9635 9.25521 25.7812 9.53125 25.5312 9.78125L9.78125 25.5312C9.55208 25.7604 9.28646 25.9375 8.98438 26.0625C8.68229 26.1875 8.36458 26.25 8.03125 26.25H5ZM22 9.75L23.75 8L22 6.25L20.25 8L22 9.75Z" fill="white"/>
</svg>
