<svg width="40" height="41" viewBox="0 0 40 41" fill="none" xmlns="http://www.w3.org/2000/svg">
<mask id="mask0_12_7" style="mask-type:alpha" maskUnits="userSpaceOnUse" x="0" y="0" width="40" height="41">
<rect y="0.5" width="40" height="40" fill="#D9D9D9"/>
</mask>
<g mask="url(#mask0_12_7)">
<path d="M14.8873 38.4747C13.6701 38.4747 12.5835 38.1353 11.6274 37.4565C10.6714 36.7777 9.96942 35.8697 9.52143 34.7324C9.10232 35.5162 8.55338 36.1125 7.87464 36.5215C7.19589 36.9305 6.42728 37.135 5.56882 37.135C4.26672 37.135 3.17974 36.6758 2.30786 35.7574C1.43595 34.8389 1 33.7372 1 32.4521C1 31.0889 1.44049 29.9741 2.32148 29.1076C3.2025 28.2411 4.30218 27.8289 5.62052 27.8708C5.20176 27.336 4.88452 26.7472 4.66881 26.1045C4.45311 25.4618 4.34526 24.7937 4.34526 24.1002C4.34526 23.0036 4.62358 21.9892 5.18023 21.0571C5.73687 20.125 6.54696 19.3841 7.61047 18.8344C7.73887 19.3137 7.93662 19.8217 8.20372 20.3586C8.47082 20.8954 8.73313 21.3708 8.99064 21.7848C8.5221 22.0619 8.16438 22.4103 7.91749 22.8301C7.6706 23.25 7.54716 23.7071 7.54716 24.2017C7.54716 25.6059 8.13726 26.4634 9.31745 26.7743C10.4976 27.0852 11.5877 27.3433 12.5875 27.5487L13.259 28.7303C13.0346 29.3931 12.8084 30.0263 12.5805 30.6297C12.3525 31.2332 12.2385 31.8211 12.2385 32.3934C12.2385 33.1424 12.4959 33.8013 13.0106 34.3701C13.5254 34.9389 14.1592 35.2234 14.9122 35.2234C15.6714 35.2234 16.3193 34.9362 16.8557 34.362C17.3922 33.7877 17.843 33.0711 18.2082 32.2122C18.5734 31.3533 18.8763 30.4336 19.1169 29.4533C19.3575 28.4729 19.5544 27.5778 19.7077 26.768C19.795 26.3201 20.0133 25.9779 20.3625 25.7413C20.7117 25.5047 21.1019 25.4402 21.5329 25.5477C21.9765 25.683 22.3148 25.963 22.5478 26.3877C22.7807 26.8124 22.8403 27.2593 22.7264 27.7285C22.4716 28.8786 22.1679 30.0848 21.8153 31.3471C21.4627 32.6094 20.9952 33.7693 20.4127 34.8268C19.8301 35.8843 19.0934 36.7566 18.2024 37.4438C17.3114 38.131 16.2063 38.4747 14.8873 38.4747ZM17.3011 25.2386C16.9799 25.5934 16.5789 25.7617 16.0981 25.7436C15.6173 25.7255 15.2059 25.5463 14.8637 25.206C13.5508 23.9888 12.3157 22.6586 11.1584 21.2155C10.0011 19.7724 9.42243 18.18 9.42243 16.4382C9.42243 14.7726 9.98696 13.36 11.116 12.2006C12.2451 11.0412 13.6266 10.4615 15.2606 10.4615C15.4139 10.4615 15.5643 10.4667 15.7118 10.4772C15.8593 10.4877 15.9995 10.5078 16.1322 10.5376C15.8588 10.1168 15.6677 9.71839 15.5588 9.34242C15.45 8.96645 15.3956 8.57991 15.3956 8.18281C15.3956 6.88081 15.8377 5.77483 16.7221 4.86488C17.6064 3.95496 18.6872 3.5 19.9644 3.5C21.2417 3.5 22.3266 3.95496 23.2192 4.86488C24.1118 5.77483 24.5581 6.88081 24.5581 8.18281C24.5581 8.56299 24.5037 8.94005 24.3949 9.31399C24.2861 9.68795 24.0949 10.0958 23.8215 10.5376C23.9377 10.5247 24.0695 10.5088 24.217 10.4899C24.3645 10.471 24.515 10.4615 24.6683 10.4615C26.2544 10.4615 27.5939 10.9957 28.6866 12.0641C29.7793 13.1325 30.3735 14.4529 30.4691 16.0251C29.98 15.9385 29.4468 15.9005 28.8696 15.9109C28.2924 15.9214 27.7695 15.9542 27.301 16.0094C27.1786 15.3474 26.8825 14.7991 26.4128 14.3646C25.943 13.93 25.3615 13.7128 24.6683 13.7128C23.7541 13.7128 23.0055 14.0445 22.4227 14.708C21.8398 15.3715 21.2317 16.08 20.5985 16.8334H19.2989C18.6717 16.0631 18.0637 15.3504 17.4751 14.6954C16.8864 14.0403 16.1483 13.7128 15.2606 13.7128C14.4847 13.7128 13.8493 13.9693 13.3543 14.4823C12.8593 14.9953 12.6119 15.6473 12.6119 16.4382C12.6119 17.4534 13.0812 18.5288 14.0198 19.6645C14.9584 20.8001 15.9993 21.8911 17.1423 22.9376C17.4785 23.2626 17.6673 23.6475 17.7088 24.0924C17.7503 24.5372 17.6144 24.9192 17.3011 25.2386ZM25.0043 38.5C24.3824 38.5 23.7677 38.4022 23.1601 38.2067C22.5525 38.0112 21.9669 37.6938 21.4031 37.2544C21.6749 36.8488 21.965 36.3835 22.2736 35.8586C22.5822 35.3336 22.8277 34.8387 23.0102 34.374C23.3029 34.6845 23.625 34.91 23.9764 35.0506C24.3278 35.1911 24.687 35.2614 25.0541 35.2614C25.8093 35.2614 26.4427 34.9711 26.9541 34.3904C27.4655 33.8097 27.7211 33.1398 27.7211 32.3807C27.7211 31.7976 27.6041 31.2052 27.37 30.6038C27.1359 30.0023 26.917 29.3736 26.7132 28.7177L27.3662 27.5578C28.3744 27.3762 29.4727 27.1246 30.6612 26.803C31.8497 26.4815 32.4439 25.6186 32.4439 24.2144C32.4439 23.21 32.0777 22.4878 31.3453 22.0476C30.6129 21.6075 29.8256 21.3874 28.9834 21.3874C28.0317 21.3874 26.9915 21.5303 25.8629 21.816C24.7343 22.1017 23.6278 22.4328 22.5436 22.8093C22.1125 22.9575 21.7032 22.9359 21.3154 22.7444C20.9277 22.5529 20.6727 22.2439 20.5506 21.8174C20.4246 21.3692 20.4915 20.9403 20.7512 20.5307C21.011 20.121 21.3744 19.8327 21.8413 19.6656C23.0244 19.2782 24.2197 18.9265 25.4271 18.6103C26.6345 18.2942 27.8087 18.1362 28.9496 18.1362C30.6914 18.1362 32.2408 18.6615 33.5978 19.7122C34.9548 20.7629 35.6333 22.2551 35.6333 24.189C35.6333 24.8571 35.5214 25.5083 35.2974 26.1426C35.0734 26.7768 34.754 27.3614 34.3392 27.8962C35.6369 27.8498 36.7382 28.2684 37.6429 29.1517C38.5476 30.0351 39 31.1437 39 32.4775C39 33.7626 38.5599 34.8643 37.6797 35.7827C36.7995 36.7011 35.7167 37.1604 34.4311 37.1604C33.5833 37.1604 32.8055 36.9495 32.0978 36.5279C31.39 36.1062 30.8431 35.5005 30.4572 34.7107C29.9883 35.8794 29.2728 36.8031 28.3106 37.4819C27.3484 38.1606 26.2463 38.5 25.0043 38.5Z" fill="white"/>
</g>
</svg>
