<svg width="40" height="41" viewBox="0 0 40 41" fill="none" xmlns="http://www.w3.org/2000/svg">
<mask id="mask0_10_58" style="mask-type:alpha" maskUnits="userSpaceOnUse" x="0" y="0" width="40" height="41">
<rect y="0.5" width="40" height="40" fill="#D9D9D9"/>
</mask>
<g mask="url(#mask0_10_58)">
<path d="M32.3997 19.8629C32.3997 17.461 31.7209 15.2936 30.3631 13.3606C29.0053 11.4277 27.2382 10.045 25.0619 9.2125C24.6504 9.05028 24.3509 8.77367 24.1633 8.38267C23.9757 7.99167 23.9786 7.58904 24.172 7.17479C24.3492 6.74696 24.6495 6.43121 25.0729 6.22754C25.4963 6.02391 25.9267 6.00542 26.3641 6.17208C29.1437 7.26992 31.3848 9.05495 33.0874 11.5272C34.79 13.9994 35.6413 16.7778 35.6413 19.8623C35.6413 22.9535 34.79 25.7357 33.0874 28.209C31.3848 30.6822 29.1437 32.4584 26.3641 33.5377C25.9254 33.7229 25.4941 33.7138 25.0704 33.5103C24.6466 33.3068 24.3467 32.9818 24.1706 32.5353C23.9781 32.1394 23.9757 31.7459 24.1633 31.3549C24.3509 30.9639 24.6508 30.6851 25.063 30.5184C27.2386 29.6891 29.0053 28.308 30.3631 26.375C31.7209 24.4421 32.3997 22.2714 32.3997 19.8629ZM11.2938 25.3309H6.95892C6.42592 25.3309 5.98042 25.1502 5.62242 24.7889C5.26442 24.4276 5.08542 23.9838 5.08542 23.4574V16.3357C5.08542 15.8279 5.26442 15.3933 5.62242 15.032C5.98042 14.6707 6.42592 14.49 6.95892 14.49H11.2938L17.0127 8.74333C17.6033 8.15939 18.2784 8.02407 19.038 8.33738C19.7977 8.65068 20.1775 9.22701 20.1775 10.0664V29.7545C20.1775 30.5939 19.7977 31.1702 19.038 31.4835C18.2784 31.7968 17.6033 31.6523 17.0127 31.0498L11.2938 25.3309ZM28.1413 19.9071C28.1413 21.179 27.8254 22.3427 27.1935 23.3983C26.5617 24.4538 25.7182 25.2781 24.663 25.8711C24.3967 25.9655 24.0455 26.0152 23.6094 26.0202C23.1733 26.0253 22.9553 25.7737 22.9553 25.2655V14.5138C22.9553 14.0056 23.1773 13.755 23.6213 13.762C24.0654 13.7691 24.4219 13.8156 24.6908 13.9015C25.746 14.529 26.5848 15.3653 27.2074 16.4105C27.83 17.4557 28.1413 18.6212 28.1413 19.9071ZM2.86863 12.2074C2.33421 12.2074 1.88917 12.0284 1.5335 11.6704C1.17783 11.3124 1 10.8669 1 10.3339V5.22579C1 4.18007 1.35889 3.29767 2.07667 2.57859C2.79444 1.85953 3.67528 1.5 4.71917 1.5H9.85508C10.3696 1.5 10.8058 1.68075 11.1638 2.04225C11.5218 2.40378 11.7008 2.84229 11.7008 3.35779C11.7008 3.88515 11.5218 4.32832 11.1638 4.68729C10.8058 5.04629 10.3696 5.22579 9.85508 5.22579H4.71917V10.3339C4.71917 10.8669 4.53806 11.3124 4.17583 11.6704C3.81358 12.0284 3.37788 12.2074 2.86863 12.2074ZM30.7765 40.1105C30.2435 40.1105 29.798 39.931 29.44 39.5721C29.082 39.2132 28.903 38.7665 28.903 38.2321C28.903 37.7229 29.082 37.2888 29.44 36.9298C29.798 36.5708 30.2435 36.3913 30.7765 36.3913H35.8846V31.2554C35.8846 30.7409 36.0658 30.3047 36.428 29.9467C36.7902 29.5887 37.235 29.4097 37.7624 29.4097C38.2779 29.4097 38.7148 29.5887 39.073 29.9467C39.4313 30.3047 39.6104 30.7409 39.6104 31.2554V36.3913C39.6104 37.4352 39.2509 38.316 38.5318 39.0338C37.8128 39.7516 36.9303 40.1105 35.8846 40.1105H30.7765Z" fill="white"/>
</g>
</svg>
