<svg width="31" height="30" viewBox="0 0 31 30" fill="none" xmlns="http://www.w3.org/2000/svg">
<path d="M8 17.5C7.3125 17.5 6.72396 17.2552 6.23438 16.7656C5.74479 16.276 5.5 15.6875 5.5 15C5.5 14.3125 5.74479 13.724 6.23438 13.2344C6.72396 12.7448 7.3125 12.5 8 12.5C8.6875 12.5 9.27604 12.7448 9.76562 13.2344C10.2552 13.724 10.5 14.3125 10.5 15C10.5 15.6875 10.2552 16.276 9.76562 16.7656C9.27604 17.2552 8.6875 17.5 8 17.5ZM15.5 17.5C14.8125 17.5 14.224 17.2552 13.7344 16.7656C13.2448 16.276 13 15.6875 13 15C13 14.3125 13.2448 13.724 13.7344 13.2344C14.224 12.7448 14.8125 12.5 15.5 12.5C16.1875 12.5 16.776 12.7448 17.2656 13.2344C17.7552 13.724 18 14.3125 18 15C18 15.6875 17.7552 16.276 17.2656 16.7656C16.776 17.2552 16.1875 17.5 15.5 17.5ZM23 17.5C22.3125 17.5 21.724 17.2552 21.2344 16.7656C20.7448 16.276 20.5 15.6875 20.5 15C20.5 14.3125 20.7448 13.724 21.2344 13.2344C21.724 12.7448 22.3125 12.5 23 12.5C23.6875 12.5 24.276 12.7448 24.7656 13.2344C25.2552 13.724 25.5 14.3125 25.5 15C25.5 15.6875 25.2552 16.276 24.7656 16.7656C24.276 17.2552 23.6875 17.5 23 17.5Z" fill="white"/>
</svg>
