<svg width="30" height="30" viewBox="0 0 30 30" fill="none" xmlns="http://www.w3.org/2000/svg">
<path d="M20.9688 24.4688C20.7396 24.6146 20.5104 24.75 20.2813 24.875C20.0521 25 19.8125 25.1146 19.5625 25.2188C19.25 25.3646 18.9323 25.3646 18.6094 25.2188C18.2865 25.0729 18.0625 24.8333 17.9375 24.5C17.8125 24.1875 17.8281 23.8802 17.9844 23.5781C18.1406 23.276 18.375 23.0521 18.6875 22.9062C18.8333 22.8438 18.9688 22.776 19.0938 22.7031C19.2188 22.6302 19.3438 22.5521 19.4688 22.4688L15 18.5V21.9688C15 22.5312 14.7448 22.9219 14.2344 23.1406C13.724 23.3594 13.2708 23.2708 12.875 22.875L8.75 18.75H5C4.64583 18.75 4.34896 18.6302 4.10938 18.3906C3.86979 18.151 3.75 17.8542 3.75 17.5V12.5C3.75 12.1458 3.86979 11.849 4.10938 11.6094C4.34896 11.3698 4.64583 11.25 5 11.25H7.75L2.625 6.125C2.39583 5.89583 2.28125 5.60417 2.28125 5.25C2.28125 4.89583 2.39583 4.60417 2.625 4.375C2.85417 4.14583 3.14583 4.03125 3.5 4.03125C3.85417 4.03125 4.14583 4.14583 4.375 4.375L25.625 25.625C25.8542 25.8542 25.9688 26.1458 25.9688 26.5C25.9688 26.8542 25.8542 27.1458 25.625 27.375C25.3958 27.6042 25.1042 27.7188 24.75 27.7188C24.3958 27.7188 24.1042 27.6042 23.875 27.375L20.9688 24.4688ZM24.5 21L22.6875 19.1875C23.0417 18.5417 23.3073 17.8646 23.4844 17.1562C23.6615 16.4479 23.75 15.7188 23.75 14.9688C23.75 13.2396 23.2917 11.6615 22.375 10.2344C21.4583 8.80729 20.2292 7.73958 18.6875 7.03125C18.375 6.88542 18.1458 6.66146 18 6.35938C17.8542 6.05729 17.8333 5.75 17.9375 5.4375C18.0625 5.10417 18.2865 4.86458 18.6094 4.71875C18.9323 4.57292 19.2604 4.57292 19.5938 4.71875C21.6146 5.61458 23.2292 6.97917 24.4375 8.8125C25.6458 10.6458 26.25 12.6979 26.25 14.9688C26.25 16.0729 26.099 17.1354 25.7969 18.1562C25.4948 19.1771 25.0625 20.125 24.5 21ZM20.3125 16.8125L17.5 14V11.0625C17.5 10.8125 17.6094 10.6302 17.8281 10.5156C18.0469 10.401 18.2604 10.4062 18.4688 10.5312C19.1563 10.9688 19.6875 11.625 20.0625 12.5C20.4375 13.375 20.625 14.2083 20.625 15C20.625 15.3125 20.599 15.6198 20.5469 15.9219C20.4948 16.224 20.4167 16.5208 20.3125 16.8125ZM15 11.5L11.75 8.25L12.875 7.125C13.2708 6.72917 13.724 6.64062 14.2344 6.85938C14.7448 7.07812 15 7.46875 15 8.03125V11.5Z" fill="white"/>
</svg>
