<svg width="30" height="30" viewBox="0 0 30 30" fill="none" xmlns="http://www.w3.org/2000/svg">
<path d="M20 23.75C19.3125 23.75 18.724 23.5052 18.2344 23.0156C17.7448 22.526 17.5 21.9375 17.5 21.25V8.75C17.5 8.0625 17.7448 7.47396 18.2344 6.98438C18.724 6.49479 19.3125 6.25 20 6.25C20.6875 6.25 21.276 6.49479 21.7656 6.98438C22.2552 7.47396 22.5 8.0625 22.5 8.75V21.25C22.5 21.9375 22.2552 22.526 21.7656 23.0156C21.276 23.5052 20.6875 23.75 20 23.75ZM10 23.75C9.3125 23.75 8.72396 23.5052 8.23438 23.0156C7.74479 22.526 7.5 21.9375 7.5 21.25V8.75C7.5 8.0625 7.74479 7.47396 8.23438 6.98438C8.72396 6.49479 9.3125 6.25 10 6.25C10.6875 6.25 11.276 6.49479 11.7656 6.98438C12.2552 7.47396 12.5 8.0625 12.5 8.75V21.25C12.5 21.9375 12.2552 22.526 11.7656 23.0156C11.276 23.5052 10.6875 23.75 10 23.75Z" fill="white"/>
</svg>
