<svg width="31" height="30" viewBox="0 0 31 30" fill="none" xmlns="http://www.w3.org/2000/svg">
<path d="M10.5 21.4688V8.53125C10.5 8.17708 10.625 7.88021 10.875 7.64062C11.125 7.40104 11.4167 7.28125 11.75 7.28125C11.8542 7.28125 11.9635 7.29688 12.0781 7.32812C12.1927 7.35938 12.3021 7.40625 12.4062 7.46875L22.5938 13.9375C22.7812 14.0625 22.9219 14.2188 23.0156 14.4062C23.1094 14.5938 23.1562 14.7917 23.1562 15C23.1562 15.2083 23.1094 15.4062 23.0156 15.5938C22.9219 15.7812 22.7812 15.9375 22.5938 16.0625L12.4062 22.5312C12.3021 22.5938 12.1927 22.6406 12.0781 22.6719C11.9635 22.7031 11.8542 22.7188 11.75 22.7188C11.4167 22.7188 11.125 22.599 10.875 22.3594C10.625 22.1198 10.5 21.8229 10.5 21.4688Z" fill="white"/>
</svg>
