<svg width="40" height="40" viewBox="0 0 40 40" fill="none" xmlns="http://www.w3.org/2000/svg">
<mask id="mask0_10_8" style="mask-type:alpha" maskUnits="userSpaceOnUse" x="0" y="0" width="40" height="40">
<rect width="40" height="40" fill="#D9D9D9"/>
</mask>
<g mask="url(#mask0_10_8)">
<path d="M25.4127 8.51235C24.7826 8.51235 24.2486 8.29229 23.8108 7.85218C23.3731 7.41207 23.1543 6.87708 23.1543 6.24722C23.1543 5.61739 23.3743 5.07869 23.8144 4.63114C24.2545 4.18358 24.7895 3.95981 25.4194 3.95981C26.0492 3.95981 26.5879 4.18267 27.0355 4.62839C27.483 5.07411 27.7068 5.61594 27.7068 6.25389C27.7068 6.88406 27.4839 7.41801 27.0382 7.85576C26.5925 8.29349 26.0507 8.51235 25.4127 8.51235ZM25.4127 36.0124C24.7826 36.0124 24.2486 35.7923 23.8108 35.3522C23.3731 34.9121 23.1543 34.3771 23.1543 33.7472C23.1543 33.1174 23.3743 32.5787 23.8144 32.1311C24.2545 31.6836 24.7895 31.4599 25.4194 31.4599C26.0492 31.4599 26.5879 31.6827 27.0355 32.1284C27.483 32.5741 27.7068 33.1159 27.7068 33.7539C27.7068 34.3841 27.4839 34.918 27.0382 35.3557C26.5925 35.7935 26.0507 36.0124 25.4127 36.0124ZM32.0794 14.3457C31.4492 14.3457 30.9153 14.1256 30.4775 13.6855C30.0398 13.2454 29.8209 12.7104 29.8209 12.0806C29.8209 11.4507 30.041 10.912 30.4811 10.4645C30.9212 10.0169 31.4562 9.79314 32.0861 9.79314C32.7159 9.79314 33.2546 10.016 33.7021 10.4617C34.1497 10.9074 34.3735 11.4493 34.3735 12.0872C34.3735 12.7174 34.1506 13.2513 33.7049 13.6891C33.2592 14.1268 32.7173 14.3457 32.0794 14.3457ZM32.0794 30.179C31.4492 30.179 30.9153 29.959 30.4775 29.5189C30.0398 29.0787 29.8209 28.5438 29.8209 27.9139C29.8209 27.2841 30.041 26.7454 30.4811 26.2978C30.9212 25.8503 31.4562 25.6265 32.0861 25.6265C32.7159 25.6265 33.2546 25.8494 33.7021 26.2951C34.1497 26.7408 34.3735 27.2826 34.3735 27.9206C34.3735 28.5507 34.1506 29.0847 33.7049 29.5224C33.2592 29.9601 32.7173 30.179 32.0794 30.179ZM34.5794 22.2624C33.9492 22.2624 33.4153 22.0423 32.9775 21.6022C32.5398 21.1621 32.3209 20.6271 32.3209 19.9972C32.3209 19.3674 32.541 18.8287 32.9811 18.3811C33.4212 17.9336 33.9562 17.7098 34.5861 17.7098C35.2159 17.7098 35.7546 17.9327 36.2021 18.3784C36.6497 18.8241 36.8735 19.3659 36.8735 20.0039C36.8735 20.6341 36.6506 21.168 36.2049 21.6057C35.7592 22.0435 35.2173 22.2624 34.5794 22.2624ZM2.89972 20.0023C2.89972 15.5263 4.3814 11.6658 7.34476 8.42085C10.3081 5.1759 13.9861 3.34922 18.3787 2.94081C18.8025 2.92006 19.1787 3.05883 19.5072 3.35714C19.8357 3.65545 20 4.02305 20 4.45997C20 4.89586 19.8667 5.26983 19.6002 5.58189C19.3337 5.89392 18.9999 6.07122 18.5988 6.11381C15.0406 6.47147 12.0616 7.96858 9.66209 10.6051C7.26254 13.2417 6.06276 16.3748 6.06276 20.0046C6.06276 23.6145 7.26254 26.7412 9.66209 29.3846C12.0616 32.0279 15.0406 33.5192 18.5988 33.8584C18.9999 33.9197 19.3337 34.1072 19.6002 34.4209C19.8667 34.7346 20 35.1016 20 35.522C20 35.9634 19.8346 36.3351 19.5038 36.6372C19.1731 36.9392 18.7928 37.0684 18.3632 37.0247C13.9807 36.6412 10.3079 34.8273 7.34464 31.5829C4.38136 28.3385 2.89972 24.4783 2.89972 20.0023ZM19.9954 23.5124C19.0084 23.5124 18.177 23.1734 17.5013 22.4955C16.8255 21.8176 16.4876 20.9833 16.4876 19.9927C16.4876 19.8532 16.4945 19.7145 16.5084 19.5767C16.5223 19.4389 16.5445 19.3089 16.5748 19.1867L14.3753 16.948C14.0083 16.6062 13.8196 16.1861 13.809 15.6875C13.7985 15.1889 13.9905 14.7456 14.3853 14.3575C14.727 14.009 15.1542 13.8342 15.6666 13.8328C16.1791 13.8315 16.6155 14.0018 16.9758 14.3436L19.2578 16.5471C19.3907 16.5008 19.6381 16.4717 20 16.4598C20.9769 16.4598 21.8112 16.806 22.5028 17.4985C23.1943 18.191 23.5401 19.0263 23.5401 20.0046C23.5401 20.9916 23.1939 21.8229 22.5014 22.4987C21.809 23.1745 20.9736 23.5124 19.9954 23.5124Z" fill="white"/>
</g>
</svg>
