<svg width="40" height="40" viewBox="0 0 40 40" fill="none" xmlns="http://www.w3.org/2000/svg">
<mask id="mask0_10_38" style="mask-type:alpha" maskUnits="userSpaceOnUse" x="0" y="0" width="40" height="40">
<rect width="40" height="40" fill="#D9D9D9"/>
</mask>
<g mask="url(#mask0_10_38)">
<path d="M16.785 37.6353C16.3096 37.6353 15.8975 37.4875 15.5489 37.192C15.2003 36.8965 15.0017 36.5122 14.9532 36.039L14.3521 32.1093C14.0087 31.9744 13.6299 31.7893 13.2157 31.5539C12.8016 31.3185 12.4435 31.0835 12.1416 30.849L8.47191 32.4885C8.0353 32.6781 7.59141 32.6972 7.14024 32.5457C6.68905 32.3943 6.34459 32.104 6.10686 31.6748L2.90249 25.9632C2.66032 25.5526 2.59284 25.1198 2.70003 24.6649C2.80723 24.21 3.0456 23.8451 3.41516 23.5704L6.65641 21.1314C6.63788 20.9709 6.62566 20.7741 6.61974 20.5409C6.6138 20.3077 6.61082 20.1017 6.61082 19.9227C6.61082 19.7649 6.6138 19.5757 6.61974 19.3551C6.62566 19.1344 6.63788 18.936 6.65641 18.7597L3.41907 16.3973C3.04952 16.1159 2.81049 15.7472 2.70199 15.2912C2.59349 14.8352 2.66032 14.4019 2.90249 13.9912L6.10686 8.33517C6.34459 7.91267 6.68905 7.62457 7.14024 7.47088C7.59141 7.31721 8.0353 7.32481 8.47191 7.49367L12.0703 9.10871C12.3771 8.88529 12.7464 8.6506 13.1782 8.40462C13.6099 8.15863 14.0058 7.96468 14.3659 7.82279L14.9532 3.88104C14.9924 3.43076 15.1957 3.05678 15.5628 2.75908C15.93 2.46136 16.3513 2.3125 16.8267 2.3125H23.2011C23.658 2.3125 24.07 2.46136 24.4372 2.75908C24.8043 3.05678 25.0168 3.43076 25.0745 3.88104L25.634 7.82671C26.0052 7.96863 26.4096 8.16257 26.8474 8.40854C27.2851 8.65451 27.6525 8.89254 27.9496 9.12262L31.5281 7.49367C31.9647 7.32481 32.4086 7.31721 32.8597 7.47088C33.3109 7.62457 33.6554 7.91267 33.8931 8.33517L37.1042 13.9635C37.3419 14.3741 37.4111 14.8121 37.3119 15.2773C37.2126 15.7426 36.9657 16.1159 36.5709 16.3973L33.288 18.7397C33.3065 18.9346 33.3262 19.1493 33.3469 19.3838C33.3676 19.6183 33.378 19.8237 33.378 20C33.378 20.1763 33.3671 20.3771 33.3452 20.6024C33.3234 20.8276 33.3103 21.0284 33.3058 21.2047L36.5432 23.567C36.9009 23.8418 37.1402 24.2072 37.2613 24.6632C37.3824 25.1192 37.324 25.5526 37.0863 25.9632L33.8653 31.6781C33.6091 32.1073 33.26 32.3965 32.8181 32.5457C32.3762 32.695 31.9369 32.6759 31.5003 32.4885L27.8412 30.849C27.5393 31.0742 27.1859 31.3098 26.7812 31.5555C26.3765 31.8013 26.008 31.9813 25.6757 32.0954L25.0745 36.039C25.0168 36.5122 24.8113 36.8965 24.458 37.192C24.1047 37.4875 23.6904 37.6353 23.2149 37.6353H16.785ZM19.955 26.1183C21.6677 26.1183 23.1233 25.5192 24.3215 24.321C25.5198 23.1227 26.1189 21.6672 26.1189 19.9544C26.1189 18.2483 25.5198 16.7945 24.3215 15.5929C23.1233 14.3913 21.6677 13.7905 19.955 13.7905C18.2378 13.7905 16.7812 14.3913 15.5852 15.5929C14.3891 16.7945 13.7911 18.2483 13.7911 19.9544C13.7911 21.6672 14.3891 23.1227 15.5852 24.321C16.7812 25.5192 18.2378 26.1183 19.955 26.1183Z" fill="white"/>
</g>
</svg>
