<svg width="31" height="30" viewBox="0 0 31 30" fill="none" xmlns="http://www.w3.org/2000/svg">
<path d="M9.35416 21.4583V8.54166C9.35416 8.24653 9.45433 7.99914 9.65469 7.79947C9.85504 7.59982 10.1033 7.5 10.3995 7.5C10.6957 7.5 10.9427 7.59982 11.1406 7.79947C11.3385 7.99914 11.4375 8.24653 11.4375 8.54166V21.4583C11.4375 21.7535 11.3373 22.0009 11.137 22.2005C10.9366 22.4002 10.6884 22.5 10.3922 22.5C10.096 22.5 9.84895 22.4002 9.65103 22.2005C9.45311 22.0009 9.35416 21.7535 9.35416 21.4583ZM14.4583 26.4583V3.54166C14.4583 3.24653 14.5585 2.99914 14.7589 2.79947C14.9592 2.59982 15.2075 2.5 15.5037 2.5C15.7998 2.5 16.0469 2.59982 16.2448 2.79947C16.4427 2.99914 16.5417 3.24653 16.5417 3.54166V26.4583C16.5417 26.7535 16.4415 27.0009 16.2411 27.2005C16.0408 27.4002 15.7925 27.5 15.4963 27.5C15.2002 27.5 14.9531 27.4002 14.7552 27.2005C14.5573 27.0009 14.4583 26.7535 14.4583 26.4583ZM4.25 16.4583V13.5417C4.25 13.2465 4.35018 12.9991 4.55053 12.7995C4.75089 12.5998 4.99915 12.5 5.29531 12.5C5.59148 12.5 5.83852 12.5998 6.03644 12.7995C6.23435 12.9991 6.33331 13.2465 6.33331 13.5417V16.4583C6.33331 16.7535 6.23314 17.0009 6.03278 17.2005C5.83243 17.4002 5.58417 17.5 5.288 17.5C4.99183 17.5 4.74479 17.4002 4.54688 17.2005C4.34896 17.0009 4.25 16.7535 4.25 16.4583ZM19.5625 21.4583V8.54166C19.5625 8.24653 19.6627 7.99914 19.863 7.79947C20.0634 7.59982 20.3116 7.5 20.6078 7.5C20.904 7.5 21.1511 7.59982 21.349 7.79947C21.5469 7.99914 21.6458 8.24653 21.6458 8.54166V21.4583C21.6458 21.7535 21.5457 22.0009 21.3453 22.2005C21.145 22.4002 20.8967 22.5 20.6005 22.5C20.3043 22.5 20.0573 22.4002 19.8594 22.2005C19.6615 22.0009 19.5625 21.7535 19.5625 21.4583ZM24.6667 16.4583V13.5417C24.6667 13.2465 24.7669 12.9991 24.9672 12.7995C25.1676 12.5998 25.4158 12.5 25.712 12.5C26.0082 12.5 26.2552 12.5998 26.4531 12.7995C26.651 12.9991 26.75 13.2465 26.75 13.5417V16.4583C26.75 16.7535 26.6498 17.0009 26.4495 17.2005C26.2491 17.4002 26.0009 17.5 25.7047 17.5C25.4085 17.5 25.1615 17.4002 24.9636 17.2005C24.7656 17.0009 24.6667 16.7535 24.6667 16.4583Z" fill="white"/>
</svg>
