<svg width="50" height="50" viewBox="0 0 50 50" fill="none" xmlns="http://www.w3.org/2000/svg">
<path d="M16.6667 35.7812L16.6667 14.2187C16.6667 13.6284 16.8751 13.1336 17.2917 12.7343C17.7084 12.335 18.1945 12.1354 18.7501 12.1354C18.9237 12.1354 19.106 12.1614 19.297 12.2135C19.4879 12.2656 19.6702 12.3437 19.8438 12.4479L36.823 23.2291C37.1355 23.4375 37.3699 23.6979 37.5261 24.0104C37.6824 24.3229 37.7605 24.6527 37.7605 25C37.7605 25.3472 37.6824 25.677 37.5261 25.9895C37.3699 26.302 37.1355 26.5625 36.823 26.7708L19.8438 37.552C19.6702 37.6562 19.4879 37.7343 19.297 37.7864C19.106 37.8385 18.9237 37.8645 18.7501 37.8645C18.1945 37.8645 17.7084 37.6649 17.2917 37.2656C16.8751 36.8663 16.6667 36.3715 16.6667 35.7812Z" fill="#FF9062"/>
</svg>
