<svg width="50" height="50" viewBox="0 0 50 50" fill="none" xmlns="http://www.w3.org/2000/svg">
<path d="M16.6666 35.7813L16.6666 14.2188C16.6666 13.6286 16.875 13.1338 17.2916 12.7345C17.7083 12.3352 18.1944 12.1355 18.75 12.1355C18.9236 12.1355 19.1059 12.1615 19.2968 12.2136C19.4878 12.2657 19.6701 12.3438 19.8437 12.448L36.8229 23.2293C37.1354 23.4376 37.3698 23.698 37.526 24.0105C37.6823 24.323 37.7604 24.6529 37.7604 25.0001C37.7604 25.3473 37.6823 25.6772 37.526 25.9897C37.3698 26.3022 37.1354 26.5626 36.8229 26.7709L19.8437 37.5522C19.6701 37.6563 19.4878 37.7345 19.2968 37.7865C19.1059 37.8386 18.9236 37.8647 18.75 37.8647C18.1944 37.8647 17.7083 37.665 17.2916 37.2657C16.875 36.8664 16.6666 36.3716 16.6666 35.7813Z" fill="#FF4A00"/>
</svg>
