<svg width="50" height="50" viewBox="0 0 50 50" fill="none" xmlns="http://www.w3.org/2000/svg">
<path d="M16.6665 35.7813L16.6665 14.2188C16.6665 13.6285 16.8748 13.1337 17.2915 12.7344C17.7082 12.3351 18.1943 12.1354 18.7498 12.1354C18.9234 12.1354 19.1057 12.1615 19.2967 12.2135C19.4877 12.2656 19.67 12.3438 19.8436 12.4479L36.8228 23.2292C37.1353 23.4375 37.3696 23.6979 37.5259 24.0104C37.6821 24.3229 37.7603 24.6528 37.7603 25C37.7603 25.3472 37.6821 25.6771 37.5259 25.9896C37.3696 26.3021 37.1353 26.5625 36.8228 26.7708L19.8436 37.5521C19.67 37.6563 19.4877 37.7344 19.2967 37.7865C19.1057 37.8386 18.9234 37.8646 18.7498 37.8646C18.1943 37.8646 17.7082 37.6649 17.2915 37.2656C16.8748 36.8663 16.6665 36.3715 16.6665 35.7813Z" fill="#2F68FF"/>
</svg>
