<svg width="40" height="40" viewBox="0 0 40 40" fill="none" xmlns="http://www.w3.org/2000/svg">
<mask id="mask0_10_32" style="mask-type:alpha" maskUnits="userSpaceOnUse" x="0" y="0" width="40" height="40">
<rect width="40" height="40" fill="#D9D9D9"/>
</mask>
<g mask="url(#mask0_10_32)">
<path d="M11.5738 23.4456C12.0787 23.4456 12.5035 23.2735 12.8482 22.9293C13.193 22.585 13.3653 22.1602 13.3653 21.6547C13.3653 21.1492 13.1946 20.7247 12.853 20.3812C12.5115 20.0377 12.0883 19.8659 11.5834 19.8659C11.0785 19.8659 10.6543 20.0366 10.3108 20.3779C9.96733 20.7192 9.79558 21.1421 9.79558 21.6466C9.79558 22.1479 9.96574 22.573 10.3061 22.9221C10.6464 23.2711 11.069 23.4456 11.5738 23.4456ZM11.5738 16.6917C12.0787 16.6917 12.5035 16.5211 12.8482 16.1799C13.193 15.8387 13.3653 15.4167 13.3653 14.9139C13.3653 14.4272 13.1946 14.0069 12.853 13.6529C12.5115 13.299 12.0883 13.122 11.5834 13.122C11.0785 13.122 10.6543 13.2964 10.3108 13.6454C9.96733 13.9943 9.79558 14.4172 9.79558 14.9141C9.79558 15.4077 9.96574 15.8274 10.3061 16.1732C10.6464 16.5189 11.069 16.6917 11.5738 16.6917ZM16.9441 23.3786H28.6676C29.1411 23.3786 29.5466 23.2094 29.8841 22.8711C30.2216 22.5327 30.3904 22.1262 30.3904 21.6514C30.3904 21.1635 30.2226 20.7505 29.887 20.4124C29.5513 20.0743 29.144 19.9052 28.6649 19.9052H16.9414C16.4498 19.9052 16.0351 20.0738 15.6974 20.411C15.3597 20.7483 15.1908 21.162 15.1908 21.6524C15.1908 22.1348 15.3564 22.5431 15.6876 22.8773C16.0188 23.2115 16.4376 23.3786 16.9441 23.3786ZM16.9441 16.6624H28.6676C29.1411 16.6624 29.5466 16.4914 29.8841 16.1493C30.2216 15.8072 30.3904 15.396 30.3904 14.9157C30.3904 14.4224 30.2226 14.0112 29.887 13.6823C29.5513 13.3535 29.144 13.189 28.6649 13.189H16.9414C16.4498 13.189 16.0351 13.3551 15.6974 13.6872C15.3597 14.0193 15.1908 14.4293 15.1908 14.9172C15.1908 15.405 15.3564 15.8179 15.6876 16.1557C16.0188 16.4935 16.4376 16.6624 16.9441 16.6624ZM6.21074 32.4628C5.20685 32.4628 4.33602 32.0939 3.59824 31.3562C2.86047 30.6184 2.49158 29.7475 2.49158 28.7437V7.75057C2.49158 6.74488 2.86047 5.87249 3.59824 5.13341C4.33602 4.39432 5.20685 4.02478 6.21074 4.02478H33.7892C34.795 4.02478 35.6674 4.39432 36.4065 5.13341C37.1455 5.87249 37.5151 6.74488 37.5151 7.75057V28.7437C37.5151 29.7475 37.1455 30.6184 36.4065 31.3562C35.6674 32.0939 34.795 32.4628 33.7892 32.4628H27.15V34.0951C27.15 34.6281 26.9676 35.0736 26.6027 35.4316C26.2378 35.7896 25.8028 35.9686 25.2977 35.9686H14.7301C14.2064 35.9686 13.7632 35.7896 13.4005 35.4316C13.0379 35.0736 12.8566 34.6281 12.8566 34.0951V32.4628H6.21074Z" fill="white"/>
</g>
</svg>
