<svg width="24" height="22" viewBox="0 0 24 22" fill="none" xmlns="http://www.w3.org/2000/svg">
<path d="M20.75 10.9688C20.75 9.23958 20.2917 7.66146 19.375 6.23438C18.4583 4.80729 17.2292 3.73958 15.6875 3.03125C15.375 2.88542 15.1458 2.66146 15 2.35938C14.8542 2.05729 14.8333 1.75 14.9375 1.4375C15.0625 1.10417 15.2865 0.864583 15.6094 0.71875C15.9323 0.572917 16.2604 0.572917 16.5938 0.71875C18.6146 1.61458 20.2292 2.98438 21.4375 4.82812C22.6458 6.67188 23.25 8.71875 23.25 10.9688C23.25 13.2188 22.6458 15.2656 21.4375 17.1094C20.2292 18.9531 18.6146 20.3229 16.5938 21.2188C16.2604 21.3646 15.9323 21.3646 15.6094 21.2188C15.2865 21.0729 15.0625 20.8333 14.9375 20.5C14.8333 20.1875 14.8542 19.8802 15 19.5781C15.1458 19.276 15.375 19.0521 15.6875 18.9062C17.2292 18.1979 18.4583 17.1302 19.375 15.7031C20.2917 14.276 20.75 12.6979 20.75 10.9688ZM5.75 14.75H2C1.64583 14.75 1.34896 14.6302 1.10938 14.3906C0.869792 14.151 0.75 13.8542 0.75 13.5V8.5C0.75 8.14583 0.869792 7.84896 1.10938 7.60938C1.34896 7.36979 1.64583 7.25 2 7.25H5.75L9.875 3.125C10.2708 2.72917 10.724 2.64062 11.2344 2.85938C11.7448 3.07812 12 3.46875 12 4.03125V17.9688C12 18.5312 11.7448 18.9219 11.2344 19.1406C10.724 19.3594 10.2708 19.2708 9.875 18.875L5.75 14.75ZM17.625 11C17.625 11.875 17.4271 12.7031 17.0312 13.4844C16.6354 14.2656 16.1146 14.9062 15.4688 15.4062C15.2604 15.5312 15.0469 15.5365 14.8281 15.4219C14.6094 15.3073 14.5 15.125 14.5 14.875V7.0625C14.5 6.8125 14.6094 6.63021 14.8281 6.51562C15.0469 6.40104 15.2604 6.40625 15.4688 6.53125C16.1146 7.05208 16.6354 7.70833 17.0312 8.5C17.4271 9.29167 17.625 10.125 17.625 11Z" fill="white"/>
</svg>
