<svg width="40" height="40" viewBox="0 0 40 40" fill="none" xmlns="http://www.w3.org/2000/svg">
<mask id="mask0_10_26" style="mask-type:alpha" maskUnits="userSpaceOnUse" x="0" y="0" width="40" height="40">
<rect width="40" height="40" fill="#D9D9D9"/>
</mask>
<g mask="url(#mask0_10_26)">
<path d="M19.9842 29.4643C20.9736 29.4643 21.9052 29.2721 22.7791 28.8876C23.653 28.5032 24.4683 27.9767 25.2249 27.3082C25.5327 27.0419 25.6859 26.6959 25.6846 26.27C25.6833 25.8442 25.5228 25.4824 25.203 25.1846C24.8774 24.9186 24.5053 24.7873 24.0867 24.7906C23.6682 24.7939 23.2819 24.9276 22.9278 25.1917C22.4949 25.5343 22.033 25.8081 21.5422 26.0131C21.0513 26.2181 20.5364 26.3206 19.9975 26.3206C19.4585 26.3206 18.945 26.2181 18.457 26.0131C17.9689 25.8081 17.5073 25.5343 17.0722 25.1917C16.7175 24.9276 16.3272 24.7886 15.9013 24.7747C15.4754 24.7608 15.1055 24.899 14.7916 25.1891C14.4776 25.4792 14.3148 25.8344 14.3031 26.2546C14.2915 26.6748 14.4441 27.0203 14.7612 27.291C15.4993 27.9366 16.3103 28.4602 17.1942 28.8618C18.0782 29.2635 19.0082 29.4643 19.9842 29.4643ZM20.0009 37.6352C17.5743 37.6352 15.2855 37.1738 13.1344 36.251C10.9833 35.3281 9.11008 34.0718 7.51466 32.4818C5.91925 30.8919 4.66208 29.0209 3.74316 26.8689C2.82422 24.7168 2.36475 22.4275 2.36475 20.0009C2.36475 17.5743 2.82616 15.2854 3.749 13.1344C4.67183 10.9833 5.92786 9.10994 7.51708 7.5143C9.1063 5.91866 10.9771 4.66039 13.1295 3.73947C15.2819 2.81855 17.5715 2.35809 19.9985 2.35809C22.4255 2.35809 24.7148 2.82033 26.8664 3.7448C29.018 4.66927 30.8914 5.92629 32.4867 7.51584C34.0821 9.1054 35.3401 10.9766 36.2608 13.1294C37.1815 15.2823 37.6419 17.5725 37.6419 20C37.6419 22.4272 37.1795 24.7163 36.2547 26.8673C35.3299 29.0183 34.0724 30.8912 32.4822 32.4861C30.8921 34.081 29.021 35.3379 26.8689 36.2568C24.7169 37.1758 22.4275 37.6352 20.0009 37.6352ZM14.177 20.2977C15.1608 20.2977 16.0304 19.9808 16.7856 19.347C17.5408 18.7131 18.133 17.925 18.5622 16.9825C18.7403 16.6284 18.7203 16.2736 18.502 15.918C18.2837 15.5625 17.9698 15.3328 17.5601 15.2292C17.1752 15.1188 16.8023 15.1661 16.4414 15.3709C16.0805 15.5757 15.7997 15.854 15.599 16.2059C15.4279 16.4768 15.2223 16.7095 14.982 16.904C14.7418 17.0984 14.467 17.1956 14.1578 17.1956C13.8334 17.1956 13.5469 17.0923 13.2983 16.8856C13.0497 16.6788 12.8538 16.4245 12.7105 16.1226C12.5071 15.7751 12.2283 15.5112 11.874 15.3306C11.5198 15.15 11.1528 15.1061 10.773 15.1986C10.3612 15.2912 10.0451 15.5115 9.82462 15.8594C9.60418 16.2073 9.5784 16.5598 9.74729 16.9169C10.1547 17.8684 10.7417 18.6698 11.5082 19.3209C12.2748 19.9721 13.1643 20.2977 14.177 20.2977ZM25.8436 20.2977C26.8275 20.2977 27.6971 19.9808 28.4523 19.347C29.2075 18.7131 29.7997 17.925 30.2289 16.9825C30.407 16.6284 30.3869 16.2736 30.1687 15.918C29.9504 15.5625 29.6364 15.3328 29.2268 15.2292C28.8419 15.1188 28.469 15.1661 28.1081 15.3709C27.7472 15.5757 27.4664 15.854 27.2657 16.2059C27.0946 16.4768 26.8889 16.7095 26.6487 16.904C26.4085 17.0984 26.1337 17.1956 25.8245 17.1956C25.5001 17.1956 25.2136 17.0923 24.965 16.8856C24.7164 16.6788 24.5204 16.4245 24.3771 16.1226C24.1738 15.7751 23.895 15.5112 23.5407 15.3306C23.1864 15.15 22.8194 15.1061 22.4397 15.1986C22.0279 15.2912 21.7117 15.5115 21.4913 15.8594C21.2708 16.2073 21.2451 16.5598 21.414 16.9169C21.8214 17.8684 22.4083 18.6698 23.1749 19.3209C23.9414 19.9721 24.831 20.2977 25.8436 20.2977Z" fill="white"/>
</g>
</svg>
